<svg xmlns="http://www.w3.org/2000/svg" viewBox="0 0 109.5 124.5">
  <path d="M95.6 28.2c-.1-.6-.6-1-1.1-1-.5 0-10.3-.8-10.3-.8s-6.8-6.8-7.5-7.5c-.7-.7-2.1-.5-2.6-.3 0 0-1.4.4-3.7 1.1-.4-1.3-1-2.8-1.8-4.4-2.6-5-6.5-7.7-11.1-7.7-.3 0-.6 0-1 .1-.1-.2-.3-.3-.4-.5-2-2.2-4.6-3.2-7.7-3.1-6 .2-12 4.5-16.8 12.2-3.4 5.4-6 12.2-6.7 17.5-6.9 2.1-11.7 3.6-11.8 3.7-3.5 1.1-3.6 1.2-4 4.5C9 44.9.5 112.5.5 112.5l76.4 13.2 41.1-10.2S95.7 28.8 95.6 28.2zM67.3 21.7l-5 1.5c0-.3 0-.7 0-1.1 0-3.4-.5-6.1-1.2-8.3 3 .4 5 3.8 6.2 7.9zm-8.5 2.6l-10.7 3.3c1-3.9 3-7.8 5.4-10.4 .9-1 2.2-2 3.6-2.6 1.4 2.8 1.8 6.8 1.7 9.7zm-6.8-13.1c1.2 0 2.2.3 3 .7-1.4.7-2.7 1.8-3.9 3.1-3.2 3.4-5.6 8.6-6.6 13.7l-8.9 2.8c1.8-8.4 8.7-20 16.4-20.3z" fill="#95BF47"/>
  <path d="M94.5 27.2c-.5 0-10.3-.8-10.3-.8s-6.8-6.8-7.5-7.5c-.3-.3-.6-.4-1-.4l-5.7 116 41.1-10.2S95.7 28.8 95.6 28.2c-.1-.6-.6-1-1.1-1" fill="#5E8E3E"/>
  <path d="M58.4 45.3l-4.9 14.7s-4.3-2.3-9.5-2.3c-7.7 0-8.1 4.8-8.1 6 0 6.6 17.2 9.1 17.2 24.6 0 12.2-7.7 20-18.1 20-12.5 0-18.9-7.8-18.9-7.8l3.3-11s6.6 5.6 12.1 5.6c3.6 0 5.1-2.8 5.1-4.9 0-8.6-14.1-9-14.1-23.2 0-11.9 8.6-23.5 25.9-23.5 6.7-.1 10 1.8 10 1.8" fill="#fff"/>
</svg>
